M48
; DRILL file {KiCad 6.0.7+dfsg-1+b1} date Tue 22 Nov 2022 11:59:18 AM CST
; FORMAT={-:-/ absolute / inch / decimal}
; #@! TF.CreationDate,2022-11-22T11:59:18+08:00
; #@! TF.GenerationSoftware,Kicad,Pcbnew,6.0.7+dfsg-1+b1
; #@! TF.FileFunction,Plated,1,2,PTH
FMAT,2
INCH
; #@! TA.AperFunction,Plated,PTH,ViaDrill
T1C0.0157
; #@! TA.AperFunction,Plated,PTH,ComponentDrill
T2C0.0256
%
G90
G05
T1
X5.4648Y-3.7171
X5.4651Y-3.6186
X5.5157Y-3.6102
X5.5167Y-3.8269
X5.5551Y-4.0748
X5.659Y-3.6708
X5.661Y-4.0827
X5.7003Y-4.0813
X5.7934Y-4.0571
X5.8756Y-3.8435
X5.8913Y-3.7313
X5.9055Y-3.6339
X5.9646Y-3.9921
X5.9684Y-3.7313
X5.9855Y-4.0556
X5.9921Y-3.937
X6.0419Y-3.7354
X6.0433Y-3.6102
T2
X5.5551Y-3.8858
X5.6051Y-3.8858
X5.7047Y-3.6177
X5.7047Y-3.6677
X5.7047Y-3.7177
X5.7047Y-3.7677
X5.8268Y-3.622
X5.8268Y-3.672
X6.0551Y-3.9441
X6.0551Y-3.9941
T0
M30
