%TF.GenerationSoftware,KiCad,Pcbnew,6.0.7+dfsg-1+b1*%
%TF.CreationDate,2022-11-22T11:59:14+08:00*%
%TF.ProjectId,bauble_pcb,62617562-6c65-45f7-9063-622e6b696361,rev?*%
%TF.SameCoordinates,Original*%
%TF.FileFunction,Copper,L1,Top*%
%TF.FilePolarity,Positive*%
%FSLAX46Y46*%
G04 Gerber Fmt 4.6, Leading zero omitted, Abs format (unit mm)*
G04 Created by KiCad (PCBNEW 6.0.7+dfsg-1+b1) date 2022-11-22 11:59:14*
%MOMM*%
%LPD*%
G01*
G04 APERTURE LIST*
G04 Aperture macros list*
%AMRoundRect*
0 Rectangle with rounded corners*
0 $1 Rounding radius*
0 $2 $3 $4 $5 $6 $7 $8 $9 X,Y pos of 4 corners*
0 Add a 4 corners polygon primitive as box body*
4,1,4,$2,$3,$4,$5,$6,$7,$8,$9,$2,$3,0*
0 Add four circle primitives for the rounded corners*
1,1,$1+$1,$2,$3*
1,1,$1+$1,$4,$5*
1,1,$1+$1,$6,$7*
1,1,$1+$1,$8,$9*
0 Add four rect primitives between the rounded corners*
20,1,$1+$1,$2,$3,$4,$5,0*
20,1,$1+$1,$4,$5,$6,$7,0*
20,1,$1+$1,$6,$7,$8,$9,0*
20,1,$1+$1,$8,$9,$2,$3,0*%
%AMFreePoly0*
4,1,9,3.862500,-0.866500,0.737500,-0.866500,0.737500,-0.450000,-0.737500,-0.450000,-0.737500,0.450000,0.737500,0.450000,0.737500,0.866500,3.862500,0.866500,3.862500,-0.866500,3.862500,-0.866500,$1*%
G04 Aperture macros list end*
%TA.AperFunction,SMDPad,CuDef*%
%ADD10RoundRect,0.250000X-0.475000X0.250000X-0.475000X-0.250000X0.475000X-0.250000X0.475000X0.250000X0*%
%TD*%
%TA.AperFunction,SMDPad,CuDef*%
%ADD11RoundRect,0.225000X0.225000X0.250000X-0.225000X0.250000X-0.225000X-0.250000X0.225000X-0.250000X0*%
%TD*%
%TA.AperFunction,SMDPad,CuDef*%
%ADD12RoundRect,0.150000X-0.512500X-0.150000X0.512500X-0.150000X0.512500X0.150000X-0.512500X0.150000X0*%
%TD*%
%TA.AperFunction,SMDPad,CuDef*%
%ADD13R,1.300000X0.900000*%
%TD*%
%TA.AperFunction,SMDPad,CuDef*%
%ADD14FreePoly0,180.000000*%
%TD*%
%TA.AperFunction,SMDPad,CuDef*%
%ADD15RoundRect,0.200000X-0.200000X-0.275000X0.200000X-0.275000X0.200000X0.275000X-0.200000X0.275000X0*%
%TD*%
%TA.AperFunction,SMDPad,CuDef*%
%ADD16RoundRect,0.200000X0.200000X0.275000X-0.200000X0.275000X-0.200000X-0.275000X0.200000X-0.275000X0*%
%TD*%
%TA.AperFunction,SMDPad,CuDef*%
%ADD17RoundRect,0.200000X0.275000X-0.200000X0.275000X0.200000X-0.275000X0.200000X-0.275000X-0.200000X0*%
%TD*%
%TA.AperFunction,SMDPad,CuDef*%
%ADD18RoundRect,0.150000X-0.587500X-0.150000X0.587500X-0.150000X0.587500X0.150000X-0.587500X0.150000X0*%
%TD*%
%TA.AperFunction,ComponentPad*%
%ADD19R,1.000000X1.000000*%
%TD*%
%TA.AperFunction,ComponentPad*%
%ADD20O,1.000000X1.000000*%
%TD*%
%TA.AperFunction,SMDPad,CuDef*%
%ADD21R,0.500000X2.500000*%
%TD*%
%TA.AperFunction,SMDPad,CuDef*%
%ADD22R,1.200000X0.900000*%
%TD*%
%TA.AperFunction,SMDPad,CuDef*%
%ADD23RoundRect,0.225000X-0.225000X-0.250000X0.225000X-0.250000X0.225000X0.250000X-0.225000X0.250000X0*%
%TD*%
%TA.AperFunction,SMDPad,CuDef*%
%ADD24RoundRect,0.225000X-0.250000X0.225000X-0.250000X-0.225000X0.250000X-0.225000X0.250000X0.225000X0*%
%TD*%
%TA.AperFunction,ViaPad*%
%ADD25C,0.800000*%
%TD*%
%TA.AperFunction,Conductor*%
%ADD26C,0.250000*%
%TD*%
G04 APERTURE END LIST*
D10*
%TO.P,C5,1*%
%TO.N,Net-(C5-Pad1)*%
X151300000Y-96550000D03*
%TO.P,C5,2*%
%TO.N,GND*%
X151300000Y-98450000D03*
%TD*%
D11*
%TO.P,C2,1*%
%TO.N,VBUS*%
X142575000Y-96500000D03*
%TO.P,C2,2*%
%TO.N,GND*%
X141025000Y-96500000D03*
%TD*%
D12*
%TO.P,U2,1,nCHRG*%
%TO.N,nCHRG*%
X140162500Y-93050000D03*
%TO.P,U2,2,GND*%
%TO.N,GND*%
X140162500Y-94000000D03*
%TO.P,U2,3,BAT*%
%TO.N,Net-(C5-Pad1)*%
X140162500Y-94950000D03*
%TO.P,U2,4,Vcc*%
%TO.N,VBUS*%
X142437500Y-94950000D03*
%TO.P,U2,5,nSTDBY*%
%TO.N,nSTDBY*%
X142437500Y-94000000D03*
%TO.P,U2,6,PROG*%
%TO.N,Net-(R3-Pad1)*%
X142437500Y-93050000D03*
%TD*%
D13*
%TO.P,U1,1,GND*%
%TO.N,GND*%
X154650000Y-94800000D03*
D14*
%TO.P,U1,2,VIN*%
%TO.N,VBAT_SW*%
X154562500Y-93300000D03*
D13*
%TO.P,U1,3,VOUT*%
%TO.N,+3V3*%
X154650000Y-91800000D03*
%TD*%
D15*
%TO.P,R4,2*%
%TO.N,Net-(DISP1-Pad12)*%
X149725000Y-98700000D03*
%TO.P,R4,1*%
%TO.N,+3V3*%
X148075000Y-98700000D03*
%TD*%
D16*
%TO.P,R3,1*%
%TO.N,Net-(R3-Pad1)*%
X142625000Y-91500000D03*
%TO.P,R3,2*%
%TO.N,GND*%
X140975000Y-91500000D03*
%TD*%
%TO.P,R2,1*%
%TO.N,+3V3*%
X146725000Y-98700000D03*
%TO.P,R2,2*%
%TO.N,EN*%
X145075000Y-98700000D03*
%TD*%
D17*
%TO.P,R1,1*%
%TO.N,VBUS*%
X139200000Y-98325000D03*
%TO.P,R1,2*%
%TO.N,GND*%
X139200000Y-96675000D03*
%TD*%
D18*
%TO.P,Q1,1,G*%
%TO.N,VBUS*%
X147462500Y-95250000D03*
%TO.P,Q1,2,S*%
%TO.N,Net-(D1-Pad1)*%
X147462500Y-97150000D03*
%TO.P,Q1,3,D*%
%TO.N,Net-(C5-Pad1)*%
X149337500Y-96200000D03*
%TD*%
D19*
%TO.P,J4,1,Pin_1*%
%TO.N,VBAT_SW*%
X148000000Y-92000000D03*
D20*
%TO.P,J4,2,Pin_2*%
%TO.N,Net-(D1-Pad1)*%
X148000000Y-93270000D03*
%TD*%
D19*
%TO.P,J3,1,Pin_1*%
%TO.N,Net-(C5-Pad1)*%
X141100000Y-98700000D03*
D20*
%TO.P,J3,2,Pin_2*%
%TO.N,GND*%
X142370000Y-98700000D03*
%TD*%
%TO.P,J2,4,Pin_4*%
%TO.N,GND*%
X144900000Y-91890000D03*
%TO.P,J2,3,Pin_3*%
%TO.N,Net-(J2-Pad3)*%
X144900000Y-93160000D03*
%TO.P,J2,2,Pin_2*%
%TO.N,Net-(J2-Pad2)*%
X144900000Y-94430000D03*
D19*
%TO.P,J2,1,Pin_1*%
%TO.N,VBUS*%
X144900000Y-95700000D03*
%TD*%
%TO.P,J1,1,Pin_1*%
%TO.N,Net-(U3-Pad7)*%
X153800000Y-101450000D03*
D20*
%TO.P,J1,2,Pin_2*%
%TO.N,Net-(U3-Pad6)*%
X153800000Y-100180000D03*
%TD*%
D21*
%TO.P,DISP1,1,TP0*%
%TO.N,unconnected-(DISP1-Pad1)*%
X142200000Y-101300000D03*
%TO.P,DISP1,7,CS*%
%TO.N,LCD_CS*%
X146400000Y-101300000D03*
%TO.P,DISP1,6,RES*%
%TO.N,EN*%
X145700000Y-101300000D03*
%TO.P,DISP1,5,RS*%
%TO.N,LCD_RS*%
X145000000Y-101300000D03*
%TO.P,DISP1,4,SCL*%
%TO.N,LCD_SCL*%
X144300000Y-101300000D03*
%TO.P,DISP1,3,SDA*%
%TO.N,LCD_SDA*%
X143600000Y-101300000D03*
%TO.P,DISP1,2,TP1*%
%TO.N,unconnected-(DISP1-Pad2)*%
X142900000Y-101300000D03*
%TO.P,DISP1,8,GND*%
%TO.N,GND*%
X147100000Y-101300000D03*
%TO.P,DISP1,9,NC*%
%TO.N,unconnected-(DISP1-Pad9)*%
X147800000Y-101300000D03*
%TO.P,DISP1,10,VCC*%
%TO.N,+3V3*%
X148500000Y-101300000D03*
%TO.P,DISP1,11,LEDK*%
%TO.N,GND*%
X149200000Y-101300000D03*
%TO.P,DISP1,12,LEDA*%
%TO.N,Net-(DISP1-Pad12)*%
X149900000Y-101300000D03*
%TO.P,DISP1,13,GND*%
%TO.N,GND*%
X150600000Y-101300000D03*
%TD*%
D22*
%TO.P,D1,2,A*%
%TO.N,VBUS*%
X139000000Y-99550000D03*
%TO.P,D1,1,K*%
%TO.N,Net-(D1-Pad1)*%
X139000000Y-102850000D03*
%TD*%
D23*
%TO.P,C4,1*%
%TO.N,+3V3*%
X153325000Y-103400000D03*
%TO.P,C4,2*%
%TO.N,GND*%
X154875000Y-103400000D03*
%TD*%
D24*
%TO.P,C3,1*%
%TO.N,EN*%
X153200000Y-96725000D03*
%TO.P,C3,2*%
%TO.N,GND*%
X153200000Y-98275000D03*
%TD*%
%TO.P,C1,2*%
%TO.N,GND*%
X154700000Y-98275000D03*
%TO.P,C1,1*%
%TO.N,VBAT_SW*%
X154700000Y-96725000D03*
%TD*%
D25*
%TO.N,+3V3*%
X138804876Y-94413408D03*
%TO.N,GND*%
X151500000Y-101400000D03*
X152200000Y-100000000D03*
%TO.N,LCD_CS*%
X152031116Y-103011182D03*
%TO.N,LCD_RS*%
X144788049Y-103665736D03*
%TO.N,LCD_SCL*%
X143789147Y-103700376D03*
%TO.N,LCD_SDA*%
X141100000Y-103500000D03*
%TO.N,EN*%
X151597515Y-94775500D03*
%TO.N,+3V3*%
X150000000Y-92300000D03*
X149640059Y-94775500D03*
X149241171Y-97624500D03*
%TO.N,GND*%
X140124500Y-97202485D03*
%TO.N,+3V3*%
X153500000Y-91700000D03*
%TO.N,GND*%
X153463912Y-94879760D03*
X147153576Y-103049502D03*
X140100000Y-91700000D03*
%TO.N,nSTDBY*%
X143737701Y-93237701D03*
%TO.N,nCHRG*%
X138812299Y-91912299D03*
%TD*%
D26*
%TO.N,+3V3*%
X138804876Y-94413408D02*
X138804876Y-93304876D01*
X138804876Y-93304876D02*
X137800000Y-92300000D01*
%TO.N,nCHRG*%
X139950000Y-93050000D02*
X138812299Y-91912299D01*
X140162500Y-93050000D02*
X139950000Y-93050000D01*
%TO.N,+3V3*%
X137800000Y-91900000D02*
X139000000Y-90700000D01*
X137800000Y-92300000D02*
X137800000Y-91900000D01*
X139000000Y-90700000D02*
X152500000Y-90700000D01*
X152500000Y-90700000D02*
X153500000Y-91700000D01*
X148075000Y-98700000D02*
X148500000Y-99125000D01*
X148500000Y-99125000D02*
X148500000Y-102750000D01*
X152824999Y-102899999D02*
X153325000Y-103400000D01*
X148500000Y-102750000D02*
X149074501Y-103324501D01*
X149074501Y-103324501D02*
X150562394Y-103324501D01*
X150562394Y-103324501D02*
X151711395Y-102175500D01*
X151711395Y-102175500D02*
X152239810Y-102175500D01*
X152239810Y-102175500D02*
X152824999Y-102760689D01*
X152824999Y-102760689D02*
X152824999Y-102899999D01*
%TO.N,EN*%
X152224500Y-101399902D02*
X152224500Y-101099902D01*
%TO.N,LCD_CS*%
X151268296Y-103774002D02*
X152031116Y-103011182D01*
X146409692Y-103774002D02*
X151268296Y-103774002D01*
X146400000Y-101300000D02*
X146400000Y-102800000D01*
X146149501Y-103513811D02*
X146409692Y-103774002D01*
%TO.N,EN*%
X154100000Y-102900000D02*
X153475000Y-102275000D01*
X153200000Y-96823863D02*
X153200000Y-96725000D01*
X151475500Y-100350902D02*
X151475500Y-99699902D01*
X152099902Y-99275500D02*
X152400000Y-98975402D01*
X145700000Y-103800000D02*
X146123503Y-104223503D01*
X152400000Y-97623863D02*
X153200000Y-96823863D01*
X152400000Y-98975402D02*
X152400000Y-97623863D01*
X153754314Y-104223503D02*
X154100000Y-103877817D01*
X151475500Y-99699902D02*
X151899902Y-99275500D01*
X153099598Y-102275000D02*
X152224500Y-101399902D01*
X152224500Y-101099902D02*
X151475500Y-100350902D01*
X153475000Y-102275000D02*
X153099598Y-102275000D01*
X146123503Y-104223503D02*
X153754314Y-104223503D01*
X145700000Y-101300000D02*
X145700000Y-103800000D01*
X154100000Y-103877817D02*
X154100000Y-102900000D01*
%TO.N,LCD_CS*%
X146149501Y-103050499D02*
X146149501Y-103513811D01*
%TO.N,EN*%
X151899902Y-99275500D02*
X152099902Y-99275500D01*
%TO.N,LCD_CS*%
X146400000Y-102800000D02*
X146149501Y-103050499D01*
%TO.N,GND*%
X150600000Y-101300000D02*
X151400000Y-101300000D01*
X151400000Y-101300000D02*
X151500000Y-101400000D01*
%TO.N,Net-(D1-Pad1)*%
X147462500Y-97150000D02*
X148650000Y-97150000D01*
X148650000Y-97150000D02*
X148975500Y-96824500D01*
X152400000Y-96988173D02*
X152399999Y-96111826D01*
X148975500Y-96824500D02*
X149724500Y-96824500D01*
X148000000Y-94300000D02*
X148000000Y-93270000D01*
X149724500Y-96824500D02*
X150400000Y-97500000D01*
X150400000Y-97500000D02*
X151888173Y-97500000D01*
X151888173Y-97500000D02*
X152400000Y-96988173D01*
X152399999Y-96111826D02*
X151788173Y-95500000D01*
X151788173Y-95500000D02*
X149200000Y-95500000D01*
X149200000Y-95500000D02*
X148000000Y-94300000D01*
%TO.N,EN*%
X151699363Y-94775500D02*
X151597515Y-94775500D01*
X153100000Y-96176137D02*
X151699363Y-94775500D01*
%TO.N,VBAT_SW*%
X153100000Y-93300000D02*
X152500000Y-93900000D01*
X153359553Y-95800000D02*
X153675000Y-95800000D01*
%TO.N,EN*%
X153100000Y-96725000D02*
X153100000Y-96176137D01*
%TO.N,VBAT_SW*%
X153675000Y-95800000D02*
X154600000Y-96725000D01*
X154562500Y-93300000D02*
X153100000Y-93300000D01*
X152500000Y-94940447D02*
X153359553Y-95800000D01*
X152500000Y-93900000D02*
X152500000Y-94940447D01*
%TO.N,GND*%
X153200000Y-98275000D02*
X153200000Y-99000000D01*
X153200000Y-99000000D02*
X152200000Y-100000000D01*
X154650000Y-94800000D02*
X154650000Y-94950000D01*
X154650000Y-94950000D02*
X154650000Y-95050000D01*
X154600000Y-98275000D02*
X155249501Y-98924501D01*
%TO.N,LCD_RS*%
X145000000Y-103453785D02*
X144788049Y-103665736D01*
%TO.N,GND*%
X155249501Y-98924501D02*
X155249501Y-103025499D01*
X147100000Y-102995926D02*
X147153576Y-103049502D01*
%TO.N,LCD_SCL*%
X144300000Y-103129187D02*
X143789147Y-103640040D01*
%TO.N,LCD_RS*%
X145000000Y-101300000D02*
X145000000Y-103453785D01*
%TO.N,LCD_SCL*%
X143789147Y-103640040D02*
X143789147Y-103700376D01*
%TO.N,GND*%
X147100000Y-101100000D02*
X147100000Y-102995926D01*
%TO.N,LCD_SCL*%
X144300000Y-101300000D02*
X144300000Y-103129187D01*
%TO.N,GND*%
X155249501Y-103025499D02*
X154875000Y-103400000D01*
%TO.N,Net-(C5-Pad1)*%
X140162500Y-94950000D02*
X139162500Y-95950000D01*
X139162500Y-95950000D02*
X138707538Y-95950000D01*
X138707538Y-95950000D02*
X138000000Y-96657538D01*
X138000000Y-96657538D02*
X138000000Y-100800000D01*
X139650000Y-100900000D02*
X141100000Y-99450000D01*
X138000000Y-100800000D02*
X138100000Y-100900000D01*
X138100000Y-100900000D02*
X139650000Y-100900000D01*
X141100000Y-99450000D02*
X141100000Y-98700000D01*
%TO.N,VBUS*%
X144900000Y-95800000D02*
X146912500Y-95800000D01*
X143275000Y-95800000D02*
X144900000Y-95800000D01*
X142575000Y-96500000D02*
X143275000Y-95800000D01*
%TO.N,GND*%
X150375499Y-102875000D02*
X150600000Y-102650499D01*
X149200000Y-102664310D02*
X149410690Y-102875000D01*
X149200000Y-101300000D02*
X149200000Y-102664310D01*
X149410690Y-102875000D02*
X150375499Y-102875000D01*
X150600000Y-102650499D02*
X150600000Y-101300000D01*
X150600000Y-101300000D02*
X150600000Y-99150000D01*
X150600000Y-99150000D02*
X151300000Y-98450000D01*
%TO.N,VBUS*%
X142437500Y-94950000D02*
X142437500Y-96362500D01*
X142437500Y-96362500D02*
X142575000Y-96500000D01*
%TO.N,LCD_SDA*%
X143600000Y-101300000D02*
X143600000Y-102800000D01*
X143600000Y-102800000D02*
X142900000Y-103500000D01*
X142900000Y-103500000D02*
X141100000Y-103500000D01*
%TO.N,+3V3*%
X148075000Y-98700000D02*
X149150500Y-97624500D01*
X149150500Y-97624500D02*
X149241171Y-97624500D01*
%TO.N,Net-(C5-Pad1)*%
X147500000Y-96300000D02*
X147600000Y-96200000D01*
X147600000Y-96200000D02*
X149337500Y-96200000D01*
X149337500Y-96200000D02*
X150950000Y-96200000D01*
X150950000Y-96200000D02*
X151300000Y-96550000D01*
%TO.N,GND*%
X151300000Y-98175000D02*
X151475000Y-98175000D01*
%TO.N,VBAT_SW*%
X154800000Y-96525000D02*
X154625000Y-96525000D01*
%TO.N,Net-(D1-Pad1)*%
X138800000Y-102550000D02*
X141750000Y-99600000D01*
%TO.N,Net-(C5-Pad1)*%
X145636158Y-97300000D02*
X146636158Y-96300000D01*
%TO.N,Net-(D1-Pad1)*%
X145822347Y-97749501D02*
X146421848Y-97150000D01*
X142636727Y-99600000D02*
X144487226Y-97749501D01*
X141750000Y-99600000D02*
X142636727Y-99600000D01*
X144487226Y-97749501D02*
X145822347Y-97749501D01*
X138800000Y-102850000D02*
X138800000Y-102550000D01*
X146421848Y-97150000D02*
X147462500Y-97150000D01*
%TO.N,Net-(C5-Pad1)*%
X141100000Y-98700000D02*
X142500000Y-97300000D01*
X142500000Y-97300000D02*
X145636158Y-97300000D01*
X146636158Y-96300000D02*
X147500000Y-96300000D01*
%TO.N,VBUS*%
X146912500Y-95800000D02*
X147462500Y-95250000D01*
%TO.N,+3V3*%
X150000000Y-94415559D02*
X149640059Y-94775500D01*
X150000000Y-92300000D02*
X150000000Y-94415559D01*
%TO.N,Net-(D1-Pad1)*%
X147765000Y-93270000D02*
X148000000Y-93270000D01*
%TO.N,GND*%
X152900000Y-98175000D02*
X154225000Y-98175000D01*
X154225000Y-98175000D02*
X154600000Y-98550000D01*
%TO.N,VBAT_SW*%
X152024598Y-93300000D02*
X154562500Y-93300000D01*
X150300098Y-91575500D02*
X152024598Y-93300000D01*
X148424500Y-91575500D02*
X150300098Y-91575500D01*
X148000000Y-92000000D02*
X148424500Y-91575500D01*
%TO.N,EN*%
X145700000Y-101100000D02*
X145700000Y-99325000D01*
X145700000Y-99325000D02*
X145075000Y-98700000D01*
%TO.N,Net-(R3-Pad1)*%
X142437500Y-93050000D02*
X142437500Y-91687500D01*
X142437500Y-91687500D02*
X142625000Y-91500000D01*
%TO.N,GND*%
X140100000Y-97177985D02*
X140124500Y-97202485D01*
X140100000Y-96500000D02*
X140100000Y-97177985D01*
%TO.N,nSTDBY*%
X142975402Y-94000000D02*
X143737701Y-93237701D01*
X142437500Y-94000000D02*
X142975402Y-94000000D01*
%TO.N,VBUS*%
X139999598Y-98325000D02*
X139200000Y-98325000D01*
X140500098Y-97824500D02*
X139999598Y-98325000D01*
X141250500Y-97824500D02*
X140500098Y-97824500D01*
X142575000Y-96500000D02*
X141250500Y-97824500D01*
%TO.N,+3V3*%
X146725000Y-98700000D02*
X148075000Y-98700000D01*
X154650000Y-91800000D02*
X153600000Y-91800000D01*
X153600000Y-91800000D02*
X153500000Y-91700000D01*
%TO.N,GND*%
X154650000Y-94800000D02*
X153600000Y-94800000D01*
X153600000Y-94800000D02*
X153300000Y-95100000D01*
%TO.N,Net-(DISP1-Pad12)*%
X149900000Y-101100000D02*
X149900000Y-98725000D01*
%TO.N,GND*%
X140100000Y-96500000D02*
X139375000Y-96500000D01*
X141025000Y-96500000D02*
X140100000Y-96500000D01*
%TO.N,Net-(C5-Pad1)*%
X141025000Y-98445000D02*
X141180000Y-98600000D01*
%TO.N,VBUS*%
X138800000Y-99550000D02*
X138800000Y-98725000D01*
X138800000Y-98725000D02*
X139200000Y-98325000D01*
%TO.N,GND*%
X139375000Y-96500000D02*
X139200000Y-96675000D01*
X140162500Y-94000000D02*
X140546751Y-94000000D01*
X140546751Y-94000000D02*
X141150000Y-94603249D01*
X141150000Y-94603249D02*
X141150000Y-96375000D01*
X141150000Y-96375000D02*
X141025000Y-96500000D01*
X140975000Y-91500000D02*
X140300000Y-91500000D01*
X140300000Y-91500000D02*
X140100000Y-91700000D01*
%TD*%
M02*
