%TF.GenerationSoftware,KiCad,Pcbnew,6.0.7+dfsg-1+b1*%
%TF.CreationDate,2022-11-22T11:59:15+08:00*%
%TF.ProjectId,bauble_pcb,62617562-6c65-45f7-9063-622e6b696361,rev?*%
%TF.SameCoordinates,Original*%
%TF.FileFunction,Soldermask,Top*%
%TF.FilePolarity,Negative*%
%FSLAX46Y46*%
G04 Gerber Fmt 4.6, Leading zero omitted, Abs format (unit mm)*
G04 Created by KiCad (PCBNEW 6.0.7+dfsg-1+b1) date 2022-11-22 11:59:15*
%MOMM*%
%LPD*%
G01*
G04 APERTURE LIST*
G04 Aperture macros list*
%AMRoundRect*
0 Rectangle with rounded corners*
0 $1 Rounding radius*
0 $2 $3 $4 $5 $6 $7 $8 $9 X,Y pos of 4 corners*
0 Add a 4 corners polygon primitive as box body*
4,1,4,$2,$3,$4,$5,$6,$7,$8,$9,$2,$3,0*
0 Add four circle primitives for the rounded corners*
1,1,$1+$1,$2,$3*
1,1,$1+$1,$4,$5*
1,1,$1+$1,$6,$7*
1,1,$1+$1,$8,$9*
0 Add four rect primitives between the rounded corners*
20,1,$1+$1,$2,$3,$4,$5,0*
20,1,$1+$1,$4,$5,$6,$7,0*
20,1,$1+$1,$6,$7,$8,$9,0*
20,1,$1+$1,$8,$9,$2,$3,0*%
%AMFreePoly0*
4,1,9,3.862500,-0.866500,0.737500,-0.866500,0.737500,-0.450000,-0.737500,-0.450000,-0.737500,0.450000,0.737500,0.450000,0.737500,0.866500,3.862500,0.866500,3.862500,-0.866500,3.862500,-0.866500,$1*%
G04 Aperture macros list end*
%ADD10RoundRect,0.250000X-0.475000X0.250000X-0.475000X-0.250000X0.475000X-0.250000X0.475000X0.250000X0*%
%ADD11RoundRect,0.225000X0.225000X0.250000X-0.225000X0.250000X-0.225000X-0.250000X0.225000X-0.250000X0*%
%ADD12RoundRect,0.150000X-0.512500X-0.150000X0.512500X-0.150000X0.512500X0.150000X-0.512500X0.150000X0*%
%ADD13R,1.300000X0.900000*%
%ADD14FreePoly0,180.000000*%
%ADD15RoundRect,0.200000X-0.200000X-0.275000X0.200000X-0.275000X0.200000X0.275000X-0.200000X0.275000X0*%
%ADD16RoundRect,0.200000X0.200000X0.275000X-0.200000X0.275000X-0.200000X-0.275000X0.200000X-0.275000X0*%
%ADD17RoundRect,0.200000X0.275000X-0.200000X0.275000X0.200000X-0.275000X0.200000X-0.275000X-0.200000X0*%
%ADD18RoundRect,0.150000X-0.587500X-0.150000X0.587500X-0.150000X0.587500X0.150000X-0.587500X0.150000X0*%
%ADD19R,1.000000X1.000000*%
%ADD20O,1.000000X1.000000*%
%ADD21R,0.500000X2.500000*%
%ADD22R,1.200000X0.900000*%
%ADD23RoundRect,0.225000X-0.225000X-0.250000X0.225000X-0.250000X0.225000X0.250000X-0.225000X0.250000X0*%
%ADD24RoundRect,0.225000X-0.250000X0.225000X-0.250000X-0.225000X0.250000X-0.225000X0.250000X0.225000X0*%
G04 APERTURE END LIST*
D10*
%TO.C,C5*%
X151300000Y-96550000D03*
X151300000Y-98450000D03*
%TD*%
D11*
%TO.C,C2*%
X142575000Y-96500000D03*
X141025000Y-96500000D03*
%TD*%
D12*
%TO.C,U2*%
X140162500Y-93050000D03*
X140162500Y-94000000D03*
X140162500Y-94950000D03*
X142437500Y-94950000D03*
X142437500Y-94000000D03*
X142437500Y-93050000D03*
%TD*%
D13*
%TO.C,U1*%
X154650000Y-94800000D03*
D14*
X154562500Y-93300000D03*
D13*
X154650000Y-91800000D03*
%TD*%
D15*
%TO.C,R4*%
X149725000Y-98700000D03*
X148075000Y-98700000D03*
%TD*%
D16*
%TO.C,R3*%
X142625000Y-91500000D03*
X140975000Y-91500000D03*
%TD*%
%TO.C,R2*%
X146725000Y-98700000D03*
X145075000Y-98700000D03*
%TD*%
D17*
%TO.C,R1*%
X139200000Y-98325000D03*
X139200000Y-96675000D03*
%TD*%
D18*
%TO.C,Q1*%
X147462500Y-95250000D03*
X147462500Y-97150000D03*
X149337500Y-96200000D03*
%TD*%
D19*
%TO.C,J4*%
X148000000Y-92000000D03*
D20*
X148000000Y-93270000D03*
%TD*%
D19*
%TO.C,J3*%
X141100000Y-98700000D03*
D20*
X142370000Y-98700000D03*
%TD*%
%TO.C,J2*%
X144900000Y-91890000D03*
X144900000Y-93160000D03*
X144900000Y-94430000D03*
D19*
X144900000Y-95700000D03*
%TD*%
%TO.C,J1*%
X153800000Y-101450000D03*
D20*
X153800000Y-100180000D03*
%TD*%
D21*
%TO.C,DISP1*%
X142200000Y-101300000D03*
X146400000Y-101300000D03*
X145700000Y-101300000D03*
X145000000Y-101300000D03*
X144300000Y-101300000D03*
X143600000Y-101300000D03*
X142900000Y-101300000D03*
X147100000Y-101300000D03*
X147800000Y-101300000D03*
X148500000Y-101300000D03*
X149200000Y-101300000D03*
X149900000Y-101300000D03*
X150600000Y-101300000D03*
%TD*%
D22*
%TO.C,D1*%
X139000000Y-99550000D03*
X139000000Y-102850000D03*
%TD*%
D23*
%TO.C,C4*%
X153325000Y-103400000D03*
X154875000Y-103400000D03*
%TD*%
D24*
%TO.C,C3*%
X153200000Y-96725000D03*
X153200000Y-98275000D03*
%TD*%
%TO.C,C1*%
X154700000Y-98275000D03*
X154700000Y-96725000D03*
%TD*%
M02*
