%TF.GenerationSoftware,KiCad,Pcbnew,6.0.7+dfsg-1+b1*%
%TF.CreationDate,2022-11-22T11:59:14+08:00*%
%TF.ProjectId,bauble_pcb,62617562-6c65-45f7-9063-622e6b696361,rev?*%
%TF.SameCoordinates,Original*%
%TF.FileFunction,Copper,L2,Bot*%
%TF.FilePolarity,Positive*%
%FSLAX46Y46*%
G04 Gerber Fmt 4.6, Leading zero omitted, Abs format (unit mm)*
G04 Created by KiCad (PCBNEW 6.0.7+dfsg-1+b1) date 2022-11-22 11:59:14*
%MOMM*%
%LPD*%
G01*
G04 APERTURE LIST*
%TA.AperFunction,SMDPad,CuDef*%
%ADD10R,1.500000X0.900000*%
%TD*%
%TA.AperFunction,SMDPad,CuDef*%
%ADD11R,0.700000X0.700000*%
%TD*%
%TA.AperFunction,ComponentPad*%
%ADD12R,1.000000X1.000000*%
%TD*%
%TA.AperFunction,ComponentPad*%
%ADD13O,1.000000X1.000000*%
%TD*%
%TA.AperFunction,ViaPad*%
%ADD14C,0.800000*%
%TD*%
%TA.AperFunction,Conductor*%
%ADD15C,0.250000*%
%TD*%
G04 APERTURE END LIST*
D10*
%TO.P,U3,9,GND*%
%TO.N,GND*%
X155350000Y-103900000D03*
%TO.P,U3,8,GPIO9*%
%TO.N,LCD_CS*%
X155350000Y-102400000D03*
%TO.P,U3,7,GPIO8*%
%TO.N,Net-(U3-Pad7)*%
X155350000Y-100900000D03*
%TO.P,U3,6,GPIO7*%
%TO.N,Net-(U3-Pad6)*%
X155350000Y-99400000D03*
%TO.P,U3,5,GPIO6*%
%TO.N,unconnected-(U3-Pad5)*%
X155350000Y-97900000D03*
%TO.P,U3,4,GPIO5/ADC2_CH0*%
%TO.N,unconnected-(U3-Pad4)*%
X155350000Y-96400000D03*
%TO.P,U3,3,GPIO4/ADC1_CH4*%
%TO.N,unconnected-(U3-Pad3)*%
X155350000Y-94900000D03*
%TO.P,U3,2,EN/CHIP_PU*%
%TO.N,EN*%
X155350000Y-93400000D03*
%TO.P,U3,1,3V3*%
%TO.N,+3V3*%
X155350000Y-91900000D03*
%TO.P,U3,10,GPIO10*%
%TO.N,LCD_SDA*%
X137850000Y-103900000D03*
%TO.P,U3,11,GPIO20/U0RXD*%
%TO.N,LCD_SCL*%
X137850000Y-102400000D03*
%TO.P,U3,12,GPIO21/U0TXD*%
%TO.N,LCD_RS*%
X137850000Y-100900000D03*
%TO.P,U3,13,GPIO18/USB_D-*%
%TO.N,Net-(J2-Pad2)*%
X137850000Y-99400000D03*
%TO.P,U3,14,GPIO19/USB_D+*%
%TO.N,Net-(J2-Pad3)*%
X137850000Y-97900000D03*
%TO.P,U3,15,GPIO3/ADC1_CH3*%
%TO.N,unconnected-(U3-Pad15)*%
X137850000Y-96400000D03*
%TO.P,U3,16,GPIO2/ADC1_CH2*%
%TO.N,+3V3*%
X137850000Y-94900000D03*
%TO.P,U3,17,GPIO1/ADC1_CH1/XTAL_32K_N*%
%TO.N,nSTDBY*%
X137850000Y-93400000D03*
%TO.P,U3,18,GPIO0/ADC1_CH0/XTAL_32K_P*%
%TO.N,nCHRG*%
X137850000Y-91900000D03*
D11*
%TO.P,U3,19,GND*%
%TO.N,GND*%
X145690000Y-98100000D03*
X145690000Y-97000000D03*
X144540000Y-97000000D03*
X144540000Y-98100000D03*
X144540000Y-99200000D03*
X145690000Y-99200000D03*
X146740000Y-99200000D03*
X146740000Y-98100000D03*
X146740000Y-97000000D03*
%TD*%
D12*
%TO.P,J4,1,Pin_1*%
%TO.N,VBAT_SW*%
X148000000Y-92000000D03*
D13*
%TO.P,J4,2,Pin_2*%
%TO.N,Net-(D1-Pad1)*%
X148000000Y-93270000D03*
%TD*%
D12*
%TO.P,J3,1,Pin_1*%
%TO.N,Net-(C5-Pad1)*%
X141100000Y-98700000D03*
D13*
%TO.P,J3,2,Pin_2*%
%TO.N,GND*%
X142370000Y-98700000D03*
%TD*%
%TO.P,J2,4,Pin_4*%
%TO.N,GND*%
X144900000Y-91890000D03*
%TO.P,J2,3,Pin_3*%
%TO.N,Net-(J2-Pad3)*%
X144900000Y-93160000D03*
%TO.P,J2,2,Pin_2*%
%TO.N,Net-(J2-Pad2)*%
X144900000Y-94430000D03*
D12*
%TO.P,J2,1,Pin_1*%
%TO.N,VBUS*%
X144900000Y-95700000D03*
%TD*%
%TO.P,J1,1,Pin_1*%
%TO.N,Net-(U3-Pad7)*%
X153800000Y-101450000D03*
D13*
%TO.P,J1,2,Pin_2*%
%TO.N,Net-(U3-Pad6)*%
X153800000Y-100180000D03*
%TD*%
D14*
%TO.N,+3V3*%
X138804876Y-94413408D03*
%TO.N,GND*%
X151500000Y-101400000D03*
X152200000Y-100000000D03*
%TO.N,LCD_CS*%
X152031116Y-103011182D03*
%TO.N,LCD_RS*%
X144788049Y-103665736D03*
%TO.N,LCD_SCL*%
X143789147Y-103700376D03*
%TO.N,LCD_SDA*%
X141100000Y-103500000D03*
%TO.N,EN*%
X151597515Y-94775500D03*
%TO.N,+3V3*%
X150000000Y-92300000D03*
X149640059Y-94775500D03*
X149241171Y-97624500D03*
%TO.N,GND*%
X140124500Y-97202485D03*
%TO.N,+3V3*%
X153500000Y-91700000D03*
%TO.N,GND*%
X153463912Y-94879760D03*
X147153576Y-103049502D03*
X140100000Y-91700000D03*
%TO.N,nSTDBY*%
X143737701Y-93237701D03*
%TO.N,nCHRG*%
X138812299Y-91912299D03*
%TD*%
D15*
%TO.N,+3V3*%
X137850000Y-94900000D02*
X138318284Y-94900000D01*
X138318284Y-94900000D02*
X138804876Y-94413408D01*
%TO.N,nCHRG*%
X137850000Y-91900000D02*
X138800000Y-91900000D01*
X138800000Y-91900000D02*
X138812299Y-91912299D01*
%TO.N,LCD_CS*%
X155350000Y-102400000D02*
X152642298Y-102400000D01*
X152642298Y-102400000D02*
X152031116Y-103011182D01*
%TO.N,EN*%
X152973015Y-93400000D02*
X151597515Y-94775500D01*
X155350000Y-93400000D02*
X152973015Y-93400000D01*
%TO.N,LCD_RS*%
X137850000Y-100900000D02*
X142022313Y-100900000D01*
%TO.N,LCD_SCL*%
X137850000Y-102400000D02*
X142488771Y-102400000D01*
%TO.N,LCD_RS*%
X142022313Y-100900000D02*
X144788049Y-103665736D01*
%TO.N,LCD_SCL*%
X142488771Y-102400000D02*
X143789147Y-103700376D01*
%TO.N,Net-(J2-Pad3)*%
X144900000Y-93260000D02*
X142909501Y-95250499D01*
%TO.N,Net-(J2-Pad2)*%
X144520000Y-94530000D02*
X143350000Y-95700000D01*
X144900000Y-94530000D02*
X144520000Y-94530000D01*
%TO.N,Net-(J2-Pad3)*%
X138150000Y-97900000D02*
X137850000Y-97900000D01*
X138925000Y-97125000D02*
X138150000Y-97900000D01*
X138925000Y-95839310D02*
X138925000Y-97125000D01*
X139513811Y-95250499D02*
X138925000Y-95839310D01*
X142909501Y-95250499D02*
X139513811Y-95250499D01*
%TO.N,Net-(J2-Pad2)*%
X139700000Y-95700000D02*
X139374501Y-96025499D01*
X139374501Y-96025499D02*
X139374501Y-98825499D01*
X143350000Y-95700000D02*
X139700000Y-95700000D01*
X139374501Y-98825499D02*
X138800000Y-99400000D01*
X138800000Y-99400000D02*
X137850000Y-99400000D01*
%TO.N,Net-(U3-Pad6)*%
X153800000Y-100180000D02*
X154580000Y-99400000D01*
X154580000Y-99400000D02*
X155350000Y-99400000D01*
%TO.N,Net-(U3-Pad7)*%
X155350000Y-100900000D02*
X154900000Y-100900000D01*
X154900000Y-100900000D02*
X154350000Y-101450000D01*
X154350000Y-101450000D02*
X153800000Y-101450000D01*
%TO.N,LCD_SDA*%
X141100000Y-103500000D02*
X140700000Y-103900000D01*
X140700000Y-103900000D02*
X137850000Y-103900000D01*
%TO.N,+3V3*%
X149640059Y-97225612D02*
X149241171Y-97624500D01*
X149640059Y-94775500D02*
X149640059Y-97225612D01*
X150600000Y-91700000D02*
X153500000Y-91700000D01*
X150000000Y-92300000D02*
X150600000Y-91700000D01*
%TO.N,nSTDBY*%
X143575402Y-93400000D02*
X143737701Y-93237701D01*
X137850000Y-93400000D02*
X143575402Y-93400000D01*
%TO.N,+3V3*%
X153500000Y-91700000D02*
X155150000Y-91700000D01*
X155150000Y-91700000D02*
X155350000Y-91900000D01*
%TD*%
%TA.AperFunction,Conductor*%
%TO.N,GND*%
G36*
X144222323Y-90928502D02*
G01*
X144268816Y-90982158D01*
X144278920Y-91052432D01*
X144249426Y-91117012D01*
X144233154Y-91132696D01*
X144196133Y-91162462D01*
X144187368Y-91171046D01*
X144068222Y-91313039D01*
X144061292Y-91323159D01*
X143971998Y-91485585D01*
X143967166Y-91496858D01*
X143928506Y-91618731D01*
X143928202Y-91632831D01*
X143934763Y-91636000D01*
X145858183Y-91636000D01*
X145871714Y-91632027D01*
X145872806Y-91624433D01*
X145838231Y-91509919D01*
X145833560Y-91498586D01*
X145746540Y-91334923D01*
X145739751Y-91324706D01*
X145622603Y-91181067D01*
X145613959Y-91172363D01*
X145564666Y-91131585D01*
X145524928Y-91072752D01*
X145523305Y-91001774D01*
X145560314Y-90941186D01*
X145624204Y-90910225D01*
X145644981Y-90908500D01*
X147063059Y-90908500D01*
X147131180Y-90928502D01*
X147177673Y-90982158D01*
X147187777Y-91052432D01*
X147158283Y-91117012D01*
X147149995Y-91124734D01*
X147150269Y-91125008D01*
X147143919Y-91131358D01*
X147136739Y-91136739D01*
X147049385Y-91253295D01*
X146998255Y-91389684D01*
X146991500Y-91451866D01*
X146991500Y-92548134D01*
X146998255Y-92610316D01*
X147049385Y-92746705D01*
X147054771Y-92753892D01*
X147059079Y-92761760D01*
X147056858Y-92762976D01*
X147077013Y-92816910D01*
X147067993Y-92870605D01*
X147068567Y-92870787D01*
X147066706Y-92876654D01*
X147066705Y-92876656D01*
X147049825Y-92929869D01*
X147008765Y-93059306D01*
X146986719Y-93255851D01*
X147003268Y-93452934D01*
X147057783Y-93643050D01*
X147148187Y-93818956D01*
X147271035Y-93973953D01*
X147275728Y-93977947D01*
X147275729Y-93977948D01*
X147415269Y-94096705D01*
X147421650Y-94102136D01*
X147594294Y-94198624D01*
X147782392Y-94259740D01*
X147978777Y-94283158D01*
X147984912Y-94282686D01*
X147984914Y-94282686D01*
X148169830Y-94268457D01*
X148169834Y-94268456D01*
X148175972Y-94267984D01*
X148366463Y-94214798D01*
X148371967Y-94212018D01*
X148371969Y-94212017D01*
X148537495Y-94128404D01*
X148537497Y-94128403D01*
X148542996Y-94125625D01*
X148698847Y-94003861D01*
X148810381Y-93874647D01*
X148824049Y-93858813D01*
X148824050Y-93858811D01*
X148828078Y-93854145D01*
X148925769Y-93682179D01*
X148988197Y-93494513D01*
X149012985Y-93298295D01*
X149013380Y-93270000D01*
X148994080Y-93073167D01*
X148936916Y-92883831D01*
X148934024Y-92878391D01*
X148932195Y-92873954D01*
X148924731Y-92803350D01*
X148942512Y-92762631D01*
X148940921Y-92761760D01*
X148945229Y-92753891D01*
X148950615Y-92746705D01*
X148958610Y-92725378D01*
X149001252Y-92668614D01*
X149067814Y-92643915D01*
X149137163Y-92659123D01*
X149185711Y-92706609D01*
X149260960Y-92836944D01*
X149265378Y-92841851D01*
X149265379Y-92841852D01*
X149379502Y-92968598D01*
X149388747Y-92978866D01*
X149487843Y-93050864D01*
X149518541Y-93073167D01*
X149543248Y-93091118D01*
X149549276Y-93093802D01*
X149549278Y-93093803D01*
X149697960Y-93160000D01*
X149717712Y-93168794D01*
X149811113Y-93188647D01*
X149898056Y-93207128D01*
X149898061Y-93207128D01*
X149904513Y-93208500D01*
X150095487Y-93208500D01*
X150101939Y-93207128D01*
X150101944Y-93207128D01*
X150188888Y-93188647D01*
X150282288Y-93168794D01*
X150302040Y-93160000D01*
X150450722Y-93093803D01*
X150450724Y-93093802D01*
X150456752Y-93091118D01*
X150481460Y-93073167D01*
X150512157Y-93050864D01*
X150611253Y-92978866D01*
X150620498Y-92968598D01*
X150734621Y-92841852D01*
X150734622Y-92841851D01*
X150739040Y-92836944D01*
X150816132Y-92703417D01*
X150831223Y-92677279D01*
X150831224Y-92677278D01*
X150834527Y-92671556D01*
X150893542Y-92489928D01*
X150898124Y-92446329D01*
X150925137Y-92380673D01*
X150983358Y-92340043D01*
X151023434Y-92333500D01*
X152791800Y-92333500D01*
X152859921Y-92353502D01*
X152879147Y-92369843D01*
X152879420Y-92369540D01*
X152884332Y-92373963D01*
X152888747Y-92378866D01*
X152894086Y-92382745D01*
X152978256Y-92443898D01*
X153043248Y-92491118D01*
X153049276Y-92493802D01*
X153049278Y-92493803D01*
X153120231Y-92525393D01*
X153174327Y-92571373D01*
X153194976Y-92639300D01*
X153175624Y-92707609D01*
X153122413Y-92754610D01*
X153068982Y-92766500D01*
X153051783Y-92766500D01*
X153040600Y-92765973D01*
X153033107Y-92764298D01*
X153025181Y-92764547D01*
X153025180Y-92764547D01*
X152965017Y-92766438D01*
X152961059Y-92766500D01*
X152933159Y-92766500D01*
X152929169Y-92767004D01*
X152917335Y-92767936D01*
X152873126Y-92769326D01*
X152865512Y-92771538D01*
X152865507Y-92771539D01*
X152853674Y-92774977D01*
X152834311Y-92778988D01*
X152814218Y-92781526D01*
X152806851Y-92784443D01*
X152806846Y-92784444D01*
X152773107Y-92797802D01*
X152761880Y-92801646D01*
X152754576Y-92803768D01*
X152719422Y-92813982D01*
X152712596Y-92818019D01*
X152701987Y-92824293D01*
X152684239Y-92832988D01*
X152665398Y-92840448D01*
X152658982Y-92845110D01*
X152658981Y-92845110D01*
X152629628Y-92866436D01*
X152619708Y-92872952D01*
X152588480Y-92891420D01*
X152588477Y-92891422D01*
X152581653Y-92895458D01*
X152567332Y-92909779D01*
X152552299Y-92922619D01*
X152535908Y-92934528D01*
X152530858Y-92940632D01*
X152530853Y-92940637D01*
X152507722Y-92968598D01*
X152499732Y-92977379D01*
X151647014Y-93830096D01*
X151584702Y-93864121D01*
X151557919Y-93867000D01*
X151502028Y-93867000D01*
X151495576Y-93868372D01*
X151495571Y-93868372D01*
X151408628Y-93886853D01*
X151315227Y-93906706D01*
X151309197Y-93909391D01*
X151309196Y-93909391D01*
X151146793Y-93981697D01*
X151146791Y-93981698D01*
X151140763Y-93984382D01*
X151135422Y-93988262D01*
X151135421Y-93988263D01*
X151085358Y-94024636D01*
X150986262Y-94096634D01*
X150981841Y-94101544D01*
X150981840Y-94101545D01*
X150892716Y-94200528D01*
X150858475Y-94238556D01*
X150762988Y-94403944D01*
X150738982Y-94477828D01*
X150738620Y-94478941D01*
X150698546Y-94537546D01*
X150633149Y-94565183D01*
X150563193Y-94553076D01*
X150510887Y-94505070D01*
X150498954Y-94478941D01*
X150498593Y-94477828D01*
X150474586Y-94403944D01*
X150379099Y-94238556D01*
X150344859Y-94200528D01*
X150255734Y-94101545D01*
X150255733Y-94101544D01*
X150251312Y-94096634D01*
X150152216Y-94024636D01*
X150102153Y-93988263D01*
X150102152Y-93988262D01*
X150096811Y-93984382D01*
X150090783Y-93981698D01*
X150090781Y-93981697D01*
X149928378Y-93909391D01*
X149928377Y-93909391D01*
X149922347Y-93906706D01*
X149828946Y-93886853D01*
X149742003Y-93868372D01*
X149741998Y-93868372D01*
X149735546Y-93867000D01*
X149544572Y-93867000D01*
X149538120Y-93868372D01*
X149538115Y-93868372D01*
X149451172Y-93886853D01*
X149357771Y-93906706D01*
X149351741Y-93909391D01*
X149351740Y-93909391D01*
X149189337Y-93981697D01*
X149189335Y-93981698D01*
X149183307Y-93984382D01*
X149177966Y-93988262D01*
X149177965Y-93988263D01*
X149127902Y-94024636D01*
X149028806Y-94096634D01*
X149024385Y-94101544D01*
X149024384Y-94101545D01*
X148935260Y-94200528D01*
X148901019Y-94238556D01*
X148805532Y-94403944D01*
X148746517Y-94585572D01*
X148745827Y-94592133D01*
X148745827Y-94592135D01*
X148743214Y-94616999D01*
X148726555Y-94775500D01*
X148746517Y-94965428D01*
X148805532Y-95147056D01*
X148901019Y-95312444D01*
X148974196Y-95393715D01*
X149004912Y-95457721D01*
X149006559Y-95478024D01*
X149006559Y-96652654D01*
X148986557Y-96720775D01*
X148931807Y-96767761D01*
X148790452Y-96830695D01*
X148790445Y-96830699D01*
X148784419Y-96833382D01*
X148629918Y-96945634D01*
X148502131Y-97087556D01*
X148406644Y-97252944D01*
X148347629Y-97434572D01*
X148346939Y-97441133D01*
X148346939Y-97441135D01*
X148334771Y-97556909D01*
X148327667Y-97624500D01*
X148328357Y-97631065D01*
X148343748Y-97777498D01*
X148347629Y-97814428D01*
X148406644Y-97996056D01*
X148502131Y-98161444D01*
X148629918Y-98303366D01*
X148784419Y-98415618D01*
X148790447Y-98418302D01*
X148790449Y-98418303D01*
X148901431Y-98467715D01*
X148958883Y-98493294D01*
X149052283Y-98513147D01*
X149139227Y-98531628D01*
X149139232Y-98531628D01*
X149145684Y-98533000D01*
X149336658Y-98533000D01*
X149343110Y-98531628D01*
X149343115Y-98531628D01*
X149430058Y-98513147D01*
X149523459Y-98493294D01*
X149580911Y-98467715D01*
X149691893Y-98418303D01*
X149691895Y-98418302D01*
X149697923Y-98415618D01*
X149852424Y-98303366D01*
X149980211Y-98161444D01*
X150075698Y-97996056D01*
X150134713Y-97814428D01*
X150138595Y-97777498D01*
X150154416Y-97626965D01*
X150180164Y-97562912D01*
X150189673Y-97550653D01*
X150192818Y-97543384D01*
X150192821Y-97543380D01*
X150207233Y-97510075D01*
X150212450Y-97499425D01*
X150233754Y-97460672D01*
X150235891Y-97452351D01*
X150238792Y-97441050D01*
X150245196Y-97422346D01*
X150250092Y-97411032D01*
X150250092Y-97411031D01*
X150253240Y-97403757D01*
X150254479Y-97395934D01*
X150254482Y-97395924D01*
X150260158Y-97360088D01*
X150262564Y-97348468D01*
X150271587Y-97313323D01*
X150271587Y-97313322D01*
X150273559Y-97305642D01*
X150273559Y-97285388D01*
X150275110Y-97265677D01*
X150276960Y-97254000D01*
X150278279Y-97245669D01*
X150274118Y-97201650D01*
X150273559Y-97189793D01*
X150273559Y-95478024D01*
X150293561Y-95409903D01*
X150305917Y-95393721D01*
X150379099Y-95312444D01*
X150474586Y-95147056D01*
X150498954Y-95072058D01*
X150539028Y-95013454D01*
X150604425Y-94985817D01*
X150674381Y-94997924D01*
X150726687Y-95045930D01*
X150738619Y-95072057D01*
X150762988Y-95147056D01*
X150858475Y-95312444D01*
X150862890Y-95317347D01*
X150862894Y-95317352D01*
X150938689Y-95401531D01*
X150986262Y-95454366D01*
X151140763Y-95566618D01*
X151146791Y-95569302D01*
X151146793Y-95569303D01*
X151209056Y-95597024D01*
X151315227Y-95644294D01*
X151383703Y-95658849D01*
X151495571Y-95682628D01*
X151495576Y-95682628D01*
X151502028Y-95684000D01*
X151693002Y-95684000D01*
X151699454Y-95682628D01*
X151699459Y-95682628D01*
X151811327Y-95658849D01*
X151879803Y-95644294D01*
X151985974Y-95597024D01*
X152048237Y-95569303D01*
X152048239Y-95569302D01*
X152054267Y-95566618D01*
X152208768Y-95454366D01*
X152256341Y-95401531D01*
X152332136Y-95317352D01*
X152332140Y-95317347D01*
X152336555Y-95312444D01*
X152432042Y-95147056D01*
X152491057Y-94965428D01*
X152508422Y-94800208D01*
X152535435Y-94734551D01*
X152544637Y-94724282D01*
X153198516Y-94070404D01*
X153260828Y-94036379D01*
X153287611Y-94033500D01*
X154031240Y-94033500D01*
X154099361Y-94053502D01*
X154145854Y-94107158D01*
X154155958Y-94177432D01*
X154149222Y-94203729D01*
X154098255Y-94339684D01*
X154091500Y-94401866D01*
X154091500Y-95398134D01*
X154098255Y-95460316D01*
X154147174Y-95590806D01*
X154149385Y-95596705D01*
X154148534Y-95597024D01*
X154162055Y-95658849D01*
X154149042Y-95703166D01*
X154149385Y-95703295D01*
X154098255Y-95839684D01*
X154091500Y-95901866D01*
X154091500Y-96898134D01*
X154098255Y-96960316D01*
X154147174Y-97090806D01*
X154149385Y-97096705D01*
X154148534Y-97097024D01*
X154162055Y-97158849D01*
X154149042Y-97203166D01*
X154149385Y-97203295D01*
X154146236Y-97211696D01*
X154146234Y-97211699D01*
X154122328Y-97275470D01*
X154098255Y-97339684D01*
X154091500Y-97401866D01*
X154091500Y-98398134D01*
X154098255Y-98460316D01*
X154147174Y-98590806D01*
X154149385Y-98596705D01*
X154148534Y-98597024D01*
X154162055Y-98658849D01*
X154149042Y-98703166D01*
X154149385Y-98703295D01*
X154098255Y-98839684D01*
X154091500Y-98901866D01*
X154091500Y-98940405D01*
X154071498Y-99008526D01*
X154054595Y-99029501D01*
X153949449Y-99134646D01*
X153887137Y-99168671D01*
X153847185Y-99170860D01*
X153813205Y-99167289D01*
X153813202Y-99167289D01*
X153807075Y-99166645D01*
X153724576Y-99174153D01*
X153616251Y-99184011D01*
X153616248Y-99184012D01*
X153610112Y-99184570D01*
X153604206Y-99186308D01*
X153604202Y-99186309D01*
X153499076Y-99217249D01*
X153420381Y-99240410D01*
X153414923Y-99243263D01*
X153414919Y-99243265D01*
X153331688Y-99286778D01*
X153245110Y-99332040D01*
X153090975Y-99455968D01*
X152963846Y-99607474D01*
X152960879Y-99612872D01*
X152960875Y-99612877D01*
X152908307Y-99708500D01*
X152868567Y-99780787D01*
X152866706Y-99786654D01*
X152866705Y-99786656D01*
X152824950Y-99918285D01*
X152808765Y-99969306D01*
X152786719Y-100165851D01*
X152787235Y-100171995D01*
X152801316Y-100339684D01*
X152803268Y-100362934D01*
X152857783Y-100553050D01*
X152864150Y-100565438D01*
X152877496Y-100635165D01*
X152857300Y-100687266D01*
X152859079Y-100688240D01*
X152854771Y-100696108D01*
X152849385Y-100703295D01*
X152798255Y-100839684D01*
X152791500Y-100901866D01*
X152791500Y-101639395D01*
X152771498Y-101707516D01*
X152717842Y-101754009D01*
X152669458Y-101765333D01*
X152634299Y-101766438D01*
X152630341Y-101766500D01*
X152602442Y-101766500D01*
X152598452Y-101767004D01*
X152586618Y-101767936D01*
X152542409Y-101769326D01*
X152534795Y-101771538D01*
X152534790Y-101771539D01*
X152522957Y-101774977D01*
X152503594Y-101778988D01*
X152483501Y-101781526D01*
X152476134Y-101784443D01*
X152476129Y-101784444D01*
X152442390Y-101797802D01*
X152431163Y-101801646D01*
X152388705Y-101813982D01*
X152381879Y-101818019D01*
X152371270Y-101824293D01*
X152353522Y-101832988D01*
X152334681Y-101840448D01*
X152328265Y-101845110D01*
X152328264Y-101845110D01*
X152298911Y-101866436D01*
X152288991Y-101872952D01*
X152257763Y-101891420D01*
X152257760Y-101891422D01*
X152250936Y-101895458D01*
X152236615Y-101909779D01*
X152221582Y-101922619D01*
X152205191Y-101934528D01*
X152200138Y-101940636D01*
X152177006Y-101968598D01*
X152169016Y-101977378D01*
X152080617Y-102065777D01*
X152018305Y-102099803D01*
X151991522Y-102102682D01*
X151935629Y-102102682D01*
X151929177Y-102104054D01*
X151929172Y-102104054D01*
X151842228Y-102122535D01*
X151748828Y-102142388D01*
X151742798Y-102145073D01*
X151742797Y-102145073D01*
X151580394Y-102217379D01*
X151580392Y-102217380D01*
X151574364Y-102220064D01*
X151419863Y-102332316D01*
X151292076Y-102474238D01*
X151196589Y-102639626D01*
X151137574Y-102821254D01*
X151117612Y-103011182D01*
X151118302Y-103017747D01*
X151131817Y-103146331D01*
X151137574Y-103201110D01*
X151196589Y-103382738D01*
X151199892Y-103388460D01*
X151199893Y-103388461D01*
X151209631Y-103405328D01*
X151292076Y-103548126D01*
X151296494Y-103553033D01*
X151296495Y-103553034D01*
X151415441Y-103685137D01*
X151419863Y-103690048D01*
X151574364Y-103802300D01*
X151580392Y-103804984D01*
X151580394Y-103804985D01*
X151729916Y-103871556D01*
X151748828Y-103879976D01*
X151826953Y-103896582D01*
X151929172Y-103918310D01*
X151929177Y-103918310D01*
X151935629Y-103919682D01*
X152126603Y-103919682D01*
X152133055Y-103918310D01*
X152133060Y-103918310D01*
X152235279Y-103896582D01*
X152313404Y-103879976D01*
X152332316Y-103871556D01*
X152481838Y-103804985D01*
X152481840Y-103804984D01*
X152487868Y-103802300D01*
X152642369Y-103690048D01*
X152646791Y-103685137D01*
X152765737Y-103553034D01*
X152765738Y-103553033D01*
X152770156Y-103548126D01*
X152852601Y-103405328D01*
X152862339Y-103388461D01*
X152862340Y-103388460D01*
X152865643Y-103382738D01*
X152924658Y-103201110D01*
X152930415Y-103146330D01*
X152957427Y-103080674D01*
X153015649Y-103040043D01*
X153055725Y-103033500D01*
X154031774Y-103033500D01*
X154099895Y-103053502D01*
X154146388Y-103107158D01*
X154156492Y-103177432D01*
X154149756Y-103203730D01*
X154101522Y-103332394D01*
X154097895Y-103347649D01*
X154092369Y-103398514D01*
X154092000Y-103405328D01*
X154092000Y-103627885D01*
X154096475Y-103643124D01*
X154097865Y-103644329D01*
X154105548Y-103646000D01*
X154965500Y-103646000D01*
X155033621Y-103666002D01*
X155080114Y-103719658D01*
X155091500Y-103772000D01*
X155091500Y-104028000D01*
X155071498Y-104096121D01*
X155017842Y-104142614D01*
X154965500Y-104154000D01*
X154110116Y-104154000D01*
X154094877Y-104158475D01*
X154093672Y-104159865D01*
X154089122Y-104180783D01*
X154087610Y-104180454D01*
X154071999Y-104233621D01*
X154018343Y-104280114D01*
X153966001Y-104291500D01*
X145694047Y-104291500D01*
X145625926Y-104271498D01*
X145579433Y-104217842D01*
X145569329Y-104147568D01*
X145584928Y-104102500D01*
X145619272Y-104043015D01*
X145619273Y-104043014D01*
X145622576Y-104037292D01*
X145681591Y-103855664D01*
X145695316Y-103725083D01*
X145700863Y-103672301D01*
X145701553Y-103665736D01*
X145681591Y-103475808D01*
X145622576Y-103294180D01*
X145527089Y-103128792D01*
X145483764Y-103080674D01*
X145403724Y-102991781D01*
X145403723Y-102991780D01*
X145399302Y-102986870D01*
X145244801Y-102874618D01*
X145238773Y-102871934D01*
X145238771Y-102871933D01*
X145076368Y-102799627D01*
X145076367Y-102799627D01*
X145070337Y-102796942D01*
X144976937Y-102777089D01*
X144889993Y-102758608D01*
X144889988Y-102758608D01*
X144883536Y-102757236D01*
X144827644Y-102757236D01*
X144759523Y-102737234D01*
X144738549Y-102720331D01*
X142525965Y-100507747D01*
X142518425Y-100499461D01*
X142514313Y-100492982D01*
X142464661Y-100446356D01*
X142461820Y-100443602D01*
X142442083Y-100423865D01*
X142438886Y-100421385D01*
X142429864Y-100413680D01*
X142403413Y-100388841D01*
X142397634Y-100383414D01*
X142390688Y-100379595D01*
X142390685Y-100379593D01*
X142379879Y-100373652D01*
X142363360Y-100362801D01*
X142355614Y-100356793D01*
X142347354Y-100350386D01*
X142340085Y-100347241D01*
X142340081Y-100347238D01*
X142306776Y-100332826D01*
X142296126Y-100327609D01*
X142257373Y-100306305D01*
X142237750Y-100301267D01*
X142219047Y-100294863D01*
X142207733Y-100289967D01*
X142207732Y-100289967D01*
X142200458Y-100286819D01*
X142192635Y-100285580D01*
X142192625Y-100285577D01*
X142156789Y-100279901D01*
X142145169Y-100277495D01*
X142110024Y-100268472D01*
X142110023Y-100268472D01*
X142102343Y-100266500D01*
X142082089Y-100266500D01*
X142062378Y-100264949D01*
X142050199Y-100263020D01*
X142042370Y-100261780D01*
X142034478Y-100262526D01*
X141998352Y-100265941D01*
X141986494Y-100266500D01*
X139168760Y-100266500D01*
X139100639Y-100246498D01*
X139054146Y-100192842D01*
X139044042Y-100122568D01*
X139050778Y-100096271D01*
X139086650Y-100000582D01*
X139130572Y-99942874D01*
X139143397Y-99933557D01*
X139153307Y-99927048D01*
X139184535Y-99908580D01*
X139184538Y-99908578D01*
X139191362Y-99904542D01*
X139205683Y-99890221D01*
X139220717Y-99877380D01*
X139230693Y-99870132D01*
X139237107Y-99865472D01*
X139265288Y-99831407D01*
X139273278Y-99822626D01*
X139766759Y-99329146D01*
X139775038Y-99321612D01*
X139781519Y-99317499D01*
X139828145Y-99267847D01*
X139830899Y-99265006D01*
X139850636Y-99245269D01*
X139853116Y-99242072D01*
X139860820Y-99233051D01*
X139878584Y-99214134D01*
X139939797Y-99178168D01*
X140010737Y-99181005D01*
X140068881Y-99221745D01*
X140095698Y-99286778D01*
X140098255Y-99310316D01*
X140149385Y-99446705D01*
X140236739Y-99563261D01*
X140353295Y-99650615D01*
X140489684Y-99701745D01*
X140551866Y-99708500D01*
X141648134Y-99708500D01*
X141710316Y-99701745D01*
X141846705Y-99650615D01*
X141853892Y-99645229D01*
X141861760Y-99640921D01*
X141862891Y-99642987D01*
X141917418Y-99622618D01*
X141965408Y-99628459D01*
X142098769Y-99671790D01*
X142112867Y-99672193D01*
X142116000Y-99665821D01*
X142116000Y-99657564D01*
X142624000Y-99657564D01*
X142627973Y-99671095D01*
X142636188Y-99672276D01*
X142730337Y-99645989D01*
X142741787Y-99641548D01*
X142834592Y-99594669D01*
X143682001Y-99594669D01*
X143682371Y-99601490D01*
X143687895Y-99652352D01*
X143691521Y-99667604D01*
X143736676Y-99788054D01*
X143745214Y-99803649D01*
X143821715Y-99905724D01*
X143834276Y-99918285D01*
X143936351Y-99994786D01*
X143951946Y-100003324D01*
X144072394Y-100048478D01*
X144087649Y-100052105D01*
X144138514Y-100057631D01*
X144145328Y-100058000D01*
X144267885Y-100058000D01*
X144283124Y-100053525D01*
X144284329Y-100052135D01*
X144286000Y-100044452D01*
X144286000Y-100039884D01*
X144794000Y-100039884D01*
X144798475Y-100055123D01*
X144799865Y-100056328D01*
X144807548Y-100057999D01*
X144934669Y-100057999D01*
X144941490Y-100057629D01*
X144992352Y-100052105D01*
X145007604Y-100048479D01*
X145070770Y-100024799D01*
X145141578Y-100019616D01*
X145159230Y-100024799D01*
X145222394Y-100048478D01*
X145237649Y-100052105D01*
X145288514Y-100057631D01*
X145295328Y-100058000D01*
X145417885Y-100058000D01*
X145433124Y-100053525D01*
X145434329Y-100052135D01*
X145436000Y-100044452D01*
X145436000Y-100039884D01*
X145944000Y-100039884D01*
X145948475Y-100055123D01*
X145949865Y-100056328D01*
X145957548Y-100057999D01*
X146084669Y-100057999D01*
X146091490Y-100057629D01*
X146142352Y-100052105D01*
X146157607Y-100048478D01*
X146170769Y-100043544D01*
X146241576Y-100038360D01*
X146259231Y-100043544D01*
X146272390Y-100048477D01*
X146287649Y-100052105D01*
X146338514Y-100057631D01*
X146345328Y-100058000D01*
X146467885Y-100058000D01*
X146483124Y-100053525D01*
X146484329Y-100052135D01*
X146486000Y-100044452D01*
X146486000Y-100039884D01*
X146994000Y-100039884D01*
X146998475Y-100055123D01*
X146999865Y-100056328D01*
X147007548Y-100057999D01*
X147134669Y-100057999D01*
X147141490Y-100057629D01*
X147192352Y-100052105D01*
X147207604Y-100048479D01*
X147328054Y-100003324D01*
X147343649Y-99994786D01*
X147445724Y-99918285D01*
X147458285Y-99905724D01*
X147534786Y-99803649D01*
X147543324Y-99788054D01*
X147588478Y-99667606D01*
X147592105Y-99652351D01*
X147597631Y-99601486D01*
X147598000Y-99594672D01*
X147598000Y-99472115D01*
X147593525Y-99456876D01*
X147592135Y-99455671D01*
X147584452Y-99454000D01*
X147012115Y-99454000D01*
X146996876Y-99458475D01*
X146995671Y-99459865D01*
X146994000Y-99467548D01*
X146994000Y-100039884D01*
X146486000Y-100039884D01*
X146486000Y-99472115D01*
X146481525Y-99456876D01*
X146480135Y-99455671D01*
X146472452Y-99454000D01*
X145962115Y-99454000D01*
X145946876Y-99458475D01*
X145945671Y-99459865D01*
X145944000Y-99467548D01*
X145944000Y-100039884D01*
X145436000Y-100039884D01*
X145436000Y-99472115D01*
X145431525Y-99456876D01*
X145430135Y-99455671D01*
X145422452Y-99454000D01*
X144812115Y-99454000D01*
X144796876Y-99458475D01*
X144795671Y-99459865D01*
X144794000Y-99467548D01*
X144794000Y-100039884D01*
X144286000Y-100039884D01*
X144286000Y-99472115D01*
X144281525Y-99456876D01*
X144280135Y-99455671D01*
X144272452Y-99454000D01*
X143700116Y-99454000D01*
X143684877Y-99458475D01*
X143683672Y-99459865D01*
X143682001Y-99467548D01*
X143682001Y-99594669D01*
X142834592Y-99594669D01*
X142907226Y-99557979D01*
X142917585Y-99551404D01*
X143063639Y-99437295D01*
X143072527Y-99428831D01*
X143193643Y-99288517D01*
X143200711Y-99278497D01*
X143292262Y-99117337D01*
X143297256Y-99106121D01*
X143342142Y-98971190D01*
X143342643Y-98957097D01*
X143336454Y-98954000D01*
X142642115Y-98954000D01*
X142626876Y-98958475D01*
X142625671Y-98959865D01*
X142624000Y-98967548D01*
X142624000Y-99657564D01*
X142116000Y-99657564D01*
X142116000Y-98927885D01*
X143682000Y-98927885D01*
X143686475Y-98943124D01*
X143687865Y-98944329D01*
X143695548Y-98946000D01*
X144267885Y-98946000D01*
X144283124Y-98941525D01*
X144284329Y-98940135D01*
X144286000Y-98932452D01*
X144286000Y-98927885D01*
X144794000Y-98927885D01*
X144798475Y-98943124D01*
X144799865Y-98944329D01*
X144807548Y-98946000D01*
X145417885Y-98946000D01*
X145433124Y-98941525D01*
X145434329Y-98940135D01*
X145436000Y-98932452D01*
X145436000Y-98927885D01*
X145944000Y-98927885D01*
X145948475Y-98943124D01*
X145949865Y-98944329D01*
X145957548Y-98946000D01*
X146467885Y-98946000D01*
X146483124Y-98941525D01*
X146484329Y-98940135D01*
X146486000Y-98932452D01*
X146486000Y-98927885D01*
X146994000Y-98927885D01*
X146998475Y-98943124D01*
X146999865Y-98944329D01*
X147007548Y-98946000D01*
X147579884Y-98946000D01*
X147595123Y-98941525D01*
X147596328Y-98940135D01*
X147597999Y-98932452D01*
X147597999Y-98805331D01*
X147597629Y-98798510D01*
X147592105Y-98747648D01*
X147588479Y-98732397D01*
X147574171Y-98694230D01*
X147568988Y-98623423D01*
X147574171Y-98605770D01*
X147588478Y-98567606D01*
X147592105Y-98552351D01*
X147597631Y-98501486D01*
X147598000Y-98494672D01*
X147598000Y-98372115D01*
X147593525Y-98356876D01*
X147592135Y-98355671D01*
X147584452Y-98354000D01*
X147012115Y-98354000D01*
X146996876Y-98358475D01*
X146995671Y-98359865D01*
X146994000Y-98367548D01*
X146994000Y-98927885D01*
X146486000Y-98927885D01*
X146486000Y-98372115D01*
X146481525Y-98356876D01*
X146480135Y-98355671D01*
X146472452Y-98354000D01*
X145962115Y-98354000D01*
X145946876Y-98358475D01*
X145945671Y-98359865D01*
X145944000Y-98367548D01*
X145944000Y-98927885D01*
X145436000Y-98927885D01*
X145436000Y-98372115D01*
X145431525Y-98356876D01*
X145430135Y-98355671D01*
X145422452Y-98354000D01*
X144812115Y-98354000D01*
X144796876Y-98358475D01*
X144795671Y-98359865D01*
X144794000Y-98367548D01*
X144794000Y-98927885D01*
X144286000Y-98927885D01*
X144286000Y-98372115D01*
X144281525Y-98356876D01*
X144280135Y-98355671D01*
X144272452Y-98354000D01*
X143700116Y-98354000D01*
X143684877Y-98358475D01*
X143683672Y-98359865D01*
X143682001Y-98367548D01*
X143682001Y-98494669D01*
X143682371Y-98501490D01*
X143687895Y-98552352D01*
X143691521Y-98567603D01*
X143705829Y-98605770D01*
X143711012Y-98676577D01*
X143705829Y-98694230D01*
X143691522Y-98732394D01*
X143687895Y-98747649D01*
X143682369Y-98798514D01*
X143682000Y-98805328D01*
X143682000Y-98927885D01*
X142116000Y-98927885D01*
X142116000Y-98427885D01*
X142624000Y-98427885D01*
X142628475Y-98443124D01*
X142629865Y-98444329D01*
X142637548Y-98446000D01*
X143328183Y-98446000D01*
X143341714Y-98442027D01*
X143342806Y-98434433D01*
X143308231Y-98319919D01*
X143303560Y-98308586D01*
X143216540Y-98144923D01*
X143209751Y-98134706D01*
X143092603Y-97991067D01*
X143083959Y-97982363D01*
X142941144Y-97864216D01*
X142930973Y-97857356D01*
X142876467Y-97827885D01*
X143682000Y-97827885D01*
X143686475Y-97843124D01*
X143687865Y-97844329D01*
X143695548Y-97846000D01*
X144267885Y-97846000D01*
X144283124Y-97841525D01*
X144284329Y-97840135D01*
X144286000Y-97832452D01*
X144286000Y-97827885D01*
X144794000Y-97827885D01*
X144798475Y-97843124D01*
X144799865Y-97844329D01*
X144807548Y-97846000D01*
X145417885Y-97846000D01*
X145433124Y-97841525D01*
X145434329Y-97840135D01*
X145436000Y-97832452D01*
X145436000Y-97827885D01*
X145944000Y-97827885D01*
X145948475Y-97843124D01*
X145949865Y-97844329D01*
X145957548Y-97846000D01*
X146467885Y-97846000D01*
X146483124Y-97841525D01*
X146484329Y-97840135D01*
X146486000Y-97832452D01*
X146486000Y-97827885D01*
X146994000Y-97827885D01*
X146998475Y-97843124D01*
X146999865Y-97844329D01*
X147007548Y-97846000D01*
X147579884Y-97846000D01*
X147595123Y-97841525D01*
X147596328Y-97840135D01*
X147597999Y-97832452D01*
X147597999Y-97705331D01*
X147597629Y-97698510D01*
X147592105Y-97647648D01*
X147588479Y-97632397D01*
X147574171Y-97594230D01*
X147568988Y-97523423D01*
X147574171Y-97505770D01*
X147588478Y-97467606D01*
X147592105Y-97452351D01*
X147597631Y-97401486D01*
X147598000Y-97394672D01*
X147598000Y-97272115D01*
X147593525Y-97256876D01*
X147592135Y-97255671D01*
X147584452Y-97254000D01*
X147012115Y-97254000D01*
X146996876Y-97258475D01*
X146995671Y-97259865D01*
X146994000Y-97267548D01*
X146994000Y-97827885D01*
X146486000Y-97827885D01*
X146486000Y-97272115D01*
X146481525Y-97256876D01*
X146480135Y-97255671D01*
X146472452Y-97254000D01*
X145962115Y-97254000D01*
X145946876Y-97258475D01*
X145945671Y-97259865D01*
X145944000Y-97267548D01*
X145944000Y-97827885D01*
X145436000Y-97827885D01*
X145436000Y-97272115D01*
X145431525Y-97256876D01*
X145430135Y-97255671D01*
X145422452Y-97254000D01*
X144812115Y-97254000D01*
X144796876Y-97258475D01*
X144795671Y-97259865D01*
X144794000Y-97267548D01*
X144794000Y-97827885D01*
X144286000Y-97827885D01*
X144286000Y-97272115D01*
X144281525Y-97256876D01*
X144280135Y-97255671D01*
X144272452Y-97254000D01*
X143700116Y-97254000D01*
X143684877Y-97258475D01*
X143683672Y-97259865D01*
X143682001Y-97267548D01*
X143682001Y-97394669D01*
X143682371Y-97401490D01*
X143687895Y-97452352D01*
X143691521Y-97467603D01*
X143705829Y-97505770D01*
X143711012Y-97576577D01*
X143705829Y-97594230D01*
X143691522Y-97632394D01*
X143687895Y-97647649D01*
X143682369Y-97698514D01*
X143682000Y-97705328D01*
X143682000Y-97827885D01*
X142876467Y-97827885D01*
X142767924Y-97769196D01*
X142756619Y-97764444D01*
X142641308Y-97728750D01*
X142627205Y-97728544D01*
X142624000Y-97735299D01*
X142624000Y-98427885D01*
X142116000Y-98427885D01*
X142116000Y-97742076D01*
X142112027Y-97728545D01*
X142104232Y-97727425D01*
X141996479Y-97759138D01*
X141979396Y-97766040D01*
X141978941Y-97764914D01*
X141915604Y-97777498D01*
X141862772Y-97757230D01*
X141861760Y-97759079D01*
X141853892Y-97754771D01*
X141846705Y-97749385D01*
X141710316Y-97698255D01*
X141648134Y-97691500D01*
X140551866Y-97691500D01*
X140489684Y-97698255D01*
X140353295Y-97749385D01*
X140236739Y-97836739D01*
X140231358Y-97843919D01*
X140225008Y-97850269D01*
X140222928Y-97848189D01*
X140177964Y-97881807D01*
X140107145Y-97886830D01*
X140044853Y-97852768D01*
X140010865Y-97790436D01*
X140008001Y-97763725D01*
X140008001Y-96459500D01*
X140028003Y-96391379D01*
X140081659Y-96344886D01*
X140134001Y-96333500D01*
X143271233Y-96333500D01*
X143282416Y-96334027D01*
X143289909Y-96335702D01*
X143297835Y-96335453D01*
X143297836Y-96335453D01*
X143357986Y-96333562D01*
X143361945Y-96333500D01*
X143389856Y-96333500D01*
X143393791Y-96333003D01*
X143393856Y-96332995D01*
X143405693Y-96332062D01*
X143437951Y-96331048D01*
X143441970Y-96330922D01*
X143449889Y-96330673D01*
X143469343Y-96325021D01*
X143488700Y-96321013D01*
X143500930Y-96319468D01*
X143500931Y-96319468D01*
X143508797Y-96318474D01*
X143516168Y-96315555D01*
X143516170Y-96315555D01*
X143549912Y-96302196D01*
X143561114Y-96298359D01*
X143561201Y-96298334D01*
X143564532Y-96297366D01*
X143635526Y-96297553D01*
X143695151Y-96336093D01*
X143724474Y-96400751D01*
X143717692Y-96462584D01*
X143691522Y-96532391D01*
X143687895Y-96547649D01*
X143682369Y-96598514D01*
X143682000Y-96605328D01*
X143682000Y-96727885D01*
X143686475Y-96743124D01*
X143687865Y-96744329D01*
X143695548Y-96746000D01*
X146467885Y-96746000D01*
X146483124Y-96741525D01*
X146484329Y-96740135D01*
X146486000Y-96732452D01*
X146486000Y-96727885D01*
X146994000Y-96727885D01*
X146998475Y-96743124D01*
X146999865Y-96744329D01*
X147007548Y-96746000D01*
X147579884Y-96746000D01*
X147595123Y-96741525D01*
X147596328Y-96740135D01*
X147597999Y-96732452D01*
X147597999Y-96605331D01*
X147597629Y-96598510D01*
X147592105Y-96547648D01*
X147588479Y-96532396D01*
X147543324Y-96411946D01*
X147534786Y-96396351D01*
X147458285Y-96294276D01*
X147445724Y-96281715D01*
X147343649Y-96205214D01*
X147328054Y-96196676D01*
X147207606Y-96151522D01*
X147192351Y-96147895D01*
X147141486Y-96142369D01*
X147134672Y-96142000D01*
X147012115Y-96142000D01*
X146996876Y-96146475D01*
X146995671Y-96147865D01*
X146994000Y-96155548D01*
X146994000Y-96727885D01*
X146486000Y-96727885D01*
X146486000Y-96160116D01*
X146481525Y-96144877D01*
X146480135Y-96143672D01*
X146472452Y-96142001D01*
X146345331Y-96142001D01*
X146338510Y-96142371D01*
X146287648Y-96147895D01*
X146272393Y-96151522D01*
X146259231Y-96156456D01*
X146188424Y-96161640D01*
X146170769Y-96156456D01*
X146157610Y-96151523D01*
X146142351Y-96147895D01*
X146091486Y-96142369D01*
X146084672Y-96142000D01*
X146034500Y-96142000D01*
X145966379Y-96121998D01*
X145919886Y-96068342D01*
X145908500Y-96016000D01*
X145908500Y-95151866D01*
X145901745Y-95089684D01*
X145850615Y-94953295D01*
X145845229Y-94946109D01*
X145840921Y-94938240D01*
X145842942Y-94937133D01*
X145822506Y-94882443D01*
X145828621Y-94833606D01*
X145886250Y-94660365D01*
X145888197Y-94654513D01*
X145912985Y-94458295D01*
X145913380Y-94430000D01*
X145894080Y-94233167D01*
X145891156Y-94223480D01*
X145860465Y-94121829D01*
X145836916Y-94043831D01*
X145744066Y-93869204D01*
X145740167Y-93864424D01*
X145739715Y-93863743D01*
X145718676Y-93795935D01*
X145735105Y-93731775D01*
X145822723Y-93577542D01*
X145822725Y-93577537D01*
X145825769Y-93572179D01*
X145888197Y-93384513D01*
X145912985Y-93188295D01*
X145913380Y-93160000D01*
X145894080Y-92963167D01*
X145885434Y-92934528D01*
X145854778Y-92832994D01*
X145836916Y-92773831D01*
X145744066Y-92599204D01*
X145740170Y-92594427D01*
X145739404Y-92593274D01*
X145718366Y-92525466D01*
X145734795Y-92461308D01*
X145822262Y-92307337D01*
X145827256Y-92296121D01*
X145872142Y-92161190D01*
X145872643Y-92147097D01*
X145866454Y-92144000D01*
X143942282Y-92144000D01*
X143928751Y-92147973D01*
X143927601Y-92155974D01*
X143931184Y-92168470D01*
X143930733Y-92239466D01*
X143891972Y-92298947D01*
X143827205Y-92328030D01*
X143810065Y-92329201D01*
X143642214Y-92329201D01*
X143635762Y-92330573D01*
X143635757Y-92330573D01*
X143548813Y-92349054D01*
X143455413Y-92368907D01*
X143449383Y-92371592D01*
X143449382Y-92371592D01*
X143286979Y-92443898D01*
X143286977Y-92443899D01*
X143280949Y-92446583D01*
X143275608Y-92450463D01*
X143275607Y-92450464D01*
X143262047Y-92460316D01*
X143126448Y-92558835D01*
X143122027Y-92563745D01*
X143122026Y-92563746D01*
X143019801Y-92677279D01*
X142998661Y-92700757D01*
X142995360Y-92706475D01*
X142991477Y-92711819D01*
X142989706Y-92710532D01*
X142945684Y-92752498D01*
X142887958Y-92766500D01*
X139548680Y-92766500D01*
X139480559Y-92746498D01*
X139434066Y-92692842D01*
X139423962Y-92622568D01*
X139455044Y-92556190D01*
X139546920Y-92454151D01*
X139546921Y-92454150D01*
X139551339Y-92449243D01*
X139646826Y-92283855D01*
X139705841Y-92102227D01*
X139725803Y-91912299D01*
X139709601Y-91758148D01*
X139706531Y-91728934D01*
X139706531Y-91728932D01*
X139705841Y-91722371D01*
X139646826Y-91540743D01*
X139551339Y-91375355D01*
X139505735Y-91324706D01*
X139427974Y-91238344D01*
X139427973Y-91238343D01*
X139423552Y-91233433D01*
X139290048Y-91136436D01*
X139246694Y-91080213D01*
X139240619Y-91009477D01*
X139273751Y-90946686D01*
X139335571Y-90911774D01*
X139364109Y-90908500D01*
X144154202Y-90908500D01*
X144222323Y-90928502D01*
G37*
%TD.AperFunction*%
%TD*%
M02*
